<?xml version="1.0" encoding="UTF-8" standalone="no"?>
<!-- Created with Inkscape (http://www.inkscape.org/) -->

<svg
   width="160"
   height="50"
   viewBox="0 0 42.333334 13.229167"
   version="1.1"
   id="svg5"
   inkscape:version="1.2 (dc2aedaf03, 2022-05-15)"
   sodipodi:docname="logo_160x50_bg_dark_v2.svg"
   xml:space="preserve"
   xmlns:inkscape="http://www.inkscape.org/namespaces/inkscape"
   xmlns:sodipodi="http://sodipodi.sourceforge.net/DTD/sodipodi-0.dtd"
   xmlns="http://www.w3.org/2000/svg"
   xmlns:svg="http://www.w3.org/2000/svg"><sodipodi:namedview
     id="namedview7"
     pagecolor="#141414"
     bordercolor="#eeeeee"
     borderopacity="1"
     inkscape:showpageshadow="0"
     inkscape:pageopacity="0"
     inkscape:pagecheckerboard="0"
     inkscape:deskcolor="#c8c8c8"
     inkscape:document-units="mm"
     showgrid="false"
     inkscape:zoom="6.7277216"
     inkscape:cx="66.590151"
     inkscape:cy="60.86756"
     inkscape:window-width="2400"
     inkscape:window-height="1271"
     inkscape:window-x="4791"
     inkscape:window-y="-9"
     inkscape:window-maximized="1"
     inkscape:current-layer="g6319"
     showguides="true" /><defs
     id="defs2"><inkscape:path-effect
       effect="bspline"
       id="path-effect2339"
       is_visible="true"
       lpeversion="1"
       weight="33.333333"
       steps="2"
       helper_size="0"
       apply_no_weight="true"
       apply_with_weight="true"
       only_selected="false" /><inkscape:path-effect
       effect="bspline"
       id="path-effect2335"
       is_visible="true"
       lpeversion="1"
       weight="33.333333"
       steps="2"
       helper_size="0"
       apply_no_weight="true"
       apply_with_weight="true"
       only_selected="false" /><inkscape:path-effect
       effect="bspline"
       id="path-effect2331"
       is_visible="true"
       lpeversion="1"
       weight="33.333333"
       steps="2"
       helper_size="0"
       apply_no_weight="true"
       apply_with_weight="true"
       only_selected="false" /><inkscape:path-effect
       effect="bspline"
       id="path-effect2327"
       is_visible="true"
       lpeversion="1"
       weight="33.333333"
       steps="2"
       helper_size="0"
       apply_no_weight="true"
       apply_with_weight="true"
       only_selected="false" /><inkscape:path-effect
       effect="bspline"
       id="path-effect2323"
       is_visible="true"
       lpeversion="1"
       weight="33.333333"
       steps="2"
       helper_size="0"
       apply_no_weight="true"
       apply_with_weight="true"
       only_selected="false" /><inkscape:path-effect
       effect="bspline"
       id="path-effect2319"
       is_visible="true"
       lpeversion="1"
       weight="33.333333"
       steps="2"
       helper_size="0"
       apply_no_weight="true"
       apply_with_weight="true"
       only_selected="false" /><inkscape:path-effect
       effect="bspline"
       id="path-effect2315"
       is_visible="true"
       lpeversion="1"
       weight="33.333333"
       steps="2"
       helper_size="0"
       apply_no_weight="true"
       apply_with_weight="true"
       only_selected="false" /><inkscape:path-effect
       effect="bspline"
       id="path-effect2311"
       is_visible="true"
       lpeversion="1"
       weight="33.333333"
       steps="2"
       helper_size="0"
       apply_no_weight="true"
       apply_with_weight="true"
       only_selected="false" /><inkscape:path-effect
       effect="bspline"
       id="path-effect2307"
       is_visible="true"
       lpeversion="1"
       weight="33.333333"
       steps="2"
       helper_size="0"
       apply_no_weight="true"
       apply_with_weight="true"
       only_selected="false" /><inkscape:path-effect
       effect="bspline"
       id="path-effect2303"
       is_visible="true"
       lpeversion="1"
       weight="33.333333"
       steps="2"
       helper_size="0"
       apply_no_weight="true"
       apply_with_weight="true"
       only_selected="false" /><inkscape:path-effect
       effect="bspline"
       id="path-effect2217"
       is_visible="true"
       lpeversion="1"
       weight="33.333333"
       steps="2"
       helper_size="0"
       apply_no_weight="true"
       apply_with_weight="true"
       only_selected="false" /><inkscape:path-effect
       effect="bspline"
       id="path-effect2213"
       is_visible="true"
       lpeversion="1"
       weight="33.333333"
       steps="2"
       helper_size="0"
       apply_no_weight="true"
       apply_with_weight="true"
       only_selected="false" /><inkscape:path-effect
       effect="bspline"
       id="path-effect2209"
       is_visible="true"
       lpeversion="1"
       weight="33.333333"
       steps="2"
       helper_size="0"
       apply_no_weight="true"
       apply_with_weight="true"
       only_selected="false" /><inkscape:path-effect
       effect="bspline"
       id="path-effect2205"
       is_visible="true"
       lpeversion="1"
       weight="33.333333"
       steps="2"
       helper_size="0"
       apply_no_weight="true"
       apply_with_weight="true"
       only_selected="false" /><inkscape:path-effect
       effect="bspline"
       id="path-effect2201"
       is_visible="true"
       lpeversion="1"
       weight="33.333333"
       steps="2"
       helper_size="0"
       apply_no_weight="true"
       apply_with_weight="true"
       only_selected="false" /><inkscape:path-effect
       effect="bspline"
       id="path-effect2197"
       is_visible="true"
       lpeversion="1"
       weight="33.333333"
       steps="2"
       helper_size="0"
       apply_no_weight="true"
       apply_with_weight="true"
       only_selected="false" /><inkscape:path-effect
       effect="bspline"
       id="path-effect2193"
       is_visible="true"
       lpeversion="1"
       weight="33.333333"
       steps="2"
       helper_size="0"
       apply_no_weight="true"
       apply_with_weight="true"
       only_selected="false" /><inkscape:path-effect
       effect="bspline"
       id="path-effect2189"
       is_visible="true"
       lpeversion="1"
       weight="33.333333"
       steps="2"
       helper_size="0"
       apply_no_weight="true"
       apply_with_weight="true"
       only_selected="false" /><inkscape:path-effect
       effect="bspline"
       id="path-effect5132"
       is_visible="true"
       lpeversion="1"
       weight="33.333333"
       steps="2"
       helper_size="0"
       apply_no_weight="true"
       apply_with_weight="true"
       only_selected="false" /><inkscape:path-effect
       effect="bspline"
       id="path-effect4029"
       is_visible="true"
       lpeversion="1"
       weight="33.333333"
       steps="2"
       helper_size="0"
       apply_no_weight="true"
       apply_with_weight="true"
       only_selected="false" /><inkscape:path-effect
       effect="bspline"
       id="path-effect2797"
       is_visible="true"
       lpeversion="1"
       weight="33.333333"
       steps="2"
       helper_size="0"
       apply_no_weight="true"
       apply_with_weight="true"
       only_selected="false" /></defs><g
     inkscape:label="Ebene 1"
     inkscape:groupmode="layer"
     id="layer1"><g
       id="g6319"
       transform="translate(0.27188116)"><g
         id="g5289"
         transform="translate(3.6968689,-5.2916667)"><text
           xml:space="preserve"
           style="font-size:4.9389px;line-height:normal;font-family:'OCR A Extended';-inkscape-font-specification:'OCR A Extended';text-decoration-color:#000000;fill:#4b8ec0;fill-opacity:1;stroke:#000000;stroke-width:0.2;stroke-linecap:round;stroke-dasharray:none;stroke-opacity:1;stop-color:#000000"
           x="4.6522956"
           y="9.2471046"
           id="text6390"><tspan
             sodipodi:role="line"
             id="tspan6388"
             style="stroke-width:0.2"
             x="4.6522956"
             y="9.2471046" /></text></g><g
         style="display:none;fill:#ffffff;fill-opacity:1"
         id="g2728"
         transform="matrix(0.00390862,0,0,0.00390862,8.1151103,23.266851)"><path
           d="m 300,-840 q 52,0 99,22 47,22 81,62 34,-40 81,-62 47,-22 99,-22 94,0 157,63 63,63 63,157 0,5 -0.5,10 -0.5,5 -0.5,10 h -80 q 1,-5 1,-10 v -10 q 0,-60 -40,-100 -40,-40 -100,-40 -47,0 -87,26.5 -40,26.5 -55,67.5 h -76 q -15,-41 -55,-67.5 -40,-26.5 -87,-26.5 -60,0 -100,40 -40,40 -40,100 v 10 q 0,5 1,10 H 81 q 0,-5 -0.5,-10 -0.5,-5 -0.5,-10 0,-94 63,-157 63,-63 157,-63 z m -88,480 h 112 q 32,31 70,67 38,36 86,79 48,-43 86,-79 38,-36 70,-67 h 113 q -38,42 -90,91 -52,49 -121,111 l -58,52 -58,-52 Q 353,-220 301.5,-269 250,-318 212,-360 Z m 230,40 q 13,0 22.5,-7.5 9.5,-7.5 13.5,-19.5 l 54,-163 35,52 q 5,8 14,13 9,5 19,5 h 320 v -80 H 623 l -69,-102 q -6,-9 -15.5,-13.5 -9.5,-4.5 -20.5,-4.5 -13,0 -22.5,7.5 -9.5,7.5 -13.5,19.5 l -54,162 -34,-51 q -5,-8 -14,-13 -9,-5 -19,-5 H 40 v 80 h 297 l 69,102 q 6,9 15.5,13.5 9.5,4.5 20.5,4.5 z m 38,-167 z"
           id="path2719"
           style="fill:#ffffff;fill-opacity:1" /></g><g
         style="display:none;fill:#ffffff;fill-opacity:1"
         id="g2739"
         transform="matrix(0.00454753,0,0,0.00454753,16.75739,23.600889)"><path
           d="m 240,-160 v -80 L 500,-480 240,-720 v -80 h 480 v 120 H 431 l 215,200 -215,200 h 289 v 120 z"
           id="path2730"
           style="fill:#ffffff;fill-opacity:1" /></g><path
         d="m 12.878226,27.450574 v -0.3175 h 3.175 v 0.3175 z m 0.15875,-0.47625 v -1.11125 h 0.47625 v 1.11125 z m 0.79375,0 v -1.905 h 0.47625 v 1.905 z m 0.79375,0 v -1.42875 h 0.47625 v 1.42875 z m 0.79375,0 v -2.38125 h 0.47625 v 2.38125 z"
         id="path2741"
         style="display:none;fill:#ffffff;fill-opacity:1;stroke-width:0.00396875" /><g
         id="g5244"
         transform="translate(-0.84369897,-1.8308615)"><g
           aria-label="M"
           id="text2615"
           style="font-size:8.84199px;font-family:'OCR A Extended';-inkscape-font-specification:'OCR A Extended';fill:#ffffff;fill-opacity:1;stroke:none;stroke-width:0.161124;stroke-linecap:round;stroke-dasharray:none;stroke-opacity:1;stop-color:#000000"
           transform="matrix(1.1588075,0,0,1.1588075,-1.3865479,-4.3418469)"><path
             d="M 3.8946021,10.419645 V 10.233998 L 3.1433783,9.1632883 V 13.54111 q 0,0.151108 -0.1079344,0.259042 -0.1036171,0.103617 -0.2547253,0.103617 -0.1511083,0 -0.2590427,-0.107934 Q 2.4180588,13.6879 2.4180588,13.54111 V 8.1659739 H 3.3549299 L 4.2486271,9.4655048 5.1682287,8.1659739 H 6.0878302 V 13.54111 q 0,0.151108 -0.1122518,0.259042 -0.1079345,0.103617 -0.2590427,0.103617 -0.1467908,0 -0.2547253,-0.107934 Q 5.3538759,13.6879 5.3538759,13.54111 V 9.1805578 L 4.6199217,10.216729 v 0.202916 q 0,0.146791 -0.1079345,0.254726 -0.1079344,0.107934 -0.2547253,0.107934 -0.1511082,0 -0.2590427,-0.107934 -0.1036171,-0.107935 -0.1036171,-0.254726 z"
             id="path6321"
             style="fill:#ffffff;fill-opacity:1;stroke:none;stroke-width:0.161124;stroke-dasharray:none;stroke-opacity:1" /></g><g
           aria-label="PRED"
           id="text186"
           style="font-size:8.84199px;font-family:'OCR A Extended';-inkscape-font-specification:'OCR A Extended';fill:#00618f;stroke:none;stroke-width:0.161124;stroke-linecap:round;stroke-opacity:1;stop-color:#000000"
           transform="matrix(1.1588844,0,0,1.1588844,1.5489268,-3.8194151)"><path
             d="M 15.292554,13.089572 V 7.7144358 h 2.573158 q 0.44469,0 0.764176,0.3238034 0.323803,0.3238034 0.323803,0.7728107 v 1.3599741 q 0,0.449007 -0.319486,0.768493 -0.319486,0.319486 -0.768493,0.319486 h -1.839203 v 1.830569 q 0,0.151108 -0.107935,0.259042 -0.103617,0.103617 -0.254725,0.103617 -0.155426,0 -0.26336,-0.103617 -0.107935,-0.107934 -0.107935,-0.259042 z m 0.733955,-2.555888 h 1.839203 q 0.146791,0 0.254725,-0.103617 0.107935,-0.107935 0.107935,-0.259043 V 8.8110499 q 0,-0.1511083 -0.107935,-0.2547253 -0.107934,-0.1079345 -0.254725,-0.1079345 h -1.839203 z"
             style="fill:#ffffff;fill-opacity:1;stroke:none;stroke-opacity:1"
             id="path6327" /><path
             d="M 20.641786,13.089572 V 7.7144358 h 2.564522 q 0.44469,0 0.764176,0.3238034 0.323804,0.3238034 0.323804,0.7728107 v 0.4144683 q 0,0.4533247 -0.319486,0.7771278 -0.319486,0.319486 -0.768494,0.319486 h -0.461959 l 1.485178,2.547253 q 0.06908,0.112252 0.06908,0.224504 0,0.146791 -0.112252,0.254725 -0.112252,0.103617 -0.254725,0.103617 -0.215869,0 -0.328121,-0.194282 L 21.898143,10.322132 H 21.37574 v 2.76744 q 0,0.151108 -0.112252,0.259042 -0.107934,0.103617 -0.259042,0.103617 -0.151109,0 -0.259043,-0.103617 -0.103617,-0.107934 -0.103617,-0.259042 z m 0.725319,-3.4927593 h 1.839203 q 0.151109,0 0.254726,-0.1036171 0.107934,-0.1079344 0.107934,-0.2590427 v -0.423103 q 0,-0.1511083 -0.107934,-0.2547253 -0.103617,-0.1079345 -0.254726,-0.1079345 h -1.839203 z"
             style="fill:#ffffff;fill-opacity:1;stroke:none;stroke-opacity:1"
             id="path6329" /><path
             d="m 29.26359,8.4483901 h -2.564523 v 1.7658079 h 1.105249 q 0.146791,0 0.254725,0.107934 0.107935,0.107935 0.107935,0.254726 0,0.155425 -0.107935,0.26336 -0.103617,0.107934 -0.254725,0.107934 h -1.105249 v 1.77876 h 2.573158 q 0.146791,0 0.254725,0.107934 0.107934,0.103617 0.107934,0.254726 0,0.151108 -0.112251,0.259042 -0.107935,0.103617 -0.259043,0.103617 H 25.973748 V 7.7144358 h 3.289842 q 0.151108,0 0.259043,0.1122519 0.112251,0.1079344 0.112251,0.2590427 0,0.1467908 -0.112251,0.2547253 -0.107935,0.1079344 -0.259043,0.1079344 z"
             style="fill:#ffffff;fill-opacity:1;stroke:none;stroke-opacity:1"
             id="path6331" /><path
             d="m 31.668369,7.7144358 h 1.43337 q 0.280629,0.00432 0.543989,0.1813299 0.267678,0.1770125 0.392882,0.4274205 l 0.716684,1.450639 q 0.202917,0.3928818 0.202917,0.8203018 0,0.397199 -0.215869,0.815985 l -0.721002,1.433369 q -0.138156,0.276312 -0.397199,0.44469 -0.259042,0.16406 -0.578528,0.16406 h -1.385879 q -0.151108,0 -0.259042,-0.107934 -0.103618,-0.107935 -0.103618,-0.254725 0,-0.151109 0.103618,-0.259043 0.107934,-0.112252 0.259042,-0.112252 h 0.379929 V 8.4483901 h -0.371294 q -0.151108,0 -0.259043,-0.1079344 -0.103617,-0.1122519 -0.103617,-0.2633601 0,-0.1467909 0.103617,-0.2547253 0.107935,-0.1079345 0.259043,-0.1079345 z m 1.096614,0.7339543 v 4.2785219 h 0.254725 q 0.241773,0 0.36266,-0.237456 l 0.716685,-1.424735 q 0.133839,-0.280629 0.133839,-0.470594 0,-0.237456 -0.107935,-0.449007 L 33.382368,8.6685764 Q 33.265799,8.4483901 33.002439,8.4483901 Z"
             style="fill:#ffffff;fill-opacity:1;stroke:none;stroke-opacity:1"
             id="path6333" /></g><g
           id="g2516"
           transform="matrix(0.71934087,0,0,0.71934087,4.4463071,1.8591907)"><g
             id="g2486"><g
               id="g2476"><path
                 sodipodi:type="star"
                 style="fill:#b3f1ff;fill-opacity:1;stroke:none;stroke-width:3.2239;stroke-linecap:round;stroke-linejoin:round;stroke-miterlimit:4;stroke-dasharray:none;stroke-opacity:1;paint-order:stroke fill markers"
                 id="path3854"
                 inkscape:flatsided="true"
                 sodipodi:sides="6"
                 sodipodi:cx="-101.32812"
                 sodipodi:cy="49.345661"
                 sodipodi:r1="26.378672"
                 sodipodi:r2="13.189336"
                 sodipodi:arg1="0.028563658"
                 sodipodi:arg2="0.55216243"
                 inkscape:rounded="0.1"
                 inkscape:randomized="0"
                 transform="matrix(-0.00230501,-0.11400864,0.11400864,-0.00230501,9.7924099,-2.2825815)"
                 inkscape:transform-center-x="0.14174787"
                 inkscape:transform-center-y="-1.7623223"
                 d="m -74.960206,50.09903 c -0.07534,2.636791 -11.515196,21.205445 -13.836392,22.458597 -2.321197,1.253152 -24.122052,0.63027 -26.367912,-0.753369 -2.24586,-1.383639 -12.60686,-20.575175 -12.53152,-23.211966 0.0753,-2.636791 11.5152,-21.205445 13.83639,-22.458596 2.3212,-1.253152 24.122055,-0.630271 26.367915,0.753368 2.24586,1.38364 12.606856,20.575175 12.531519,23.211966 z"
                 inkscape:label="Hexagon foreground" /><path
                 sodipodi:type="star"
                 style="fill:#4b8ec0;fill-opacity:1;stroke:none;stroke-width:3.2239;stroke-linecap:round;stroke-linejoin:round;stroke-miterlimit:4;stroke-dasharray:none;stroke-opacity:1;paint-order:stroke fill markers"
                 id="path5435"
                 inkscape:flatsided="true"
                 sodipodi:sides="6"
                 sodipodi:cx="-101.32812"
                 sodipodi:cy="49.345661"
                 sodipodi:r1="26.378672"
                 sodipodi:r2="13.189336"
                 sodipodi:arg1="0.028563658"
                 sodipodi:arg2="0.55216243"
                 inkscape:rounded="0.1"
                 inkscape:randomized="0"
                 transform="matrix(-0.00153668,-0.07600576,0.07600576,-0.00153668,11.712796,1.4942527)"
                 inkscape:transform-center-x="0.094499169"
                 inkscape:transform-center-y="-1.1748818"
                 d="m -74.960206,50.09903 c -0.07534,2.636791 -11.515196,21.205445 -13.836392,22.458597 -2.321197,1.253152 -24.122052,0.63027 -26.367912,-0.753369 -2.24586,-1.383639 -12.60686,-20.575175 -12.53152,-23.211966 0.0753,-2.636791 11.5152,-21.205445 13.83639,-22.458596 2.3212,-1.253152 24.122055,-0.630271 26.367915,0.753368 2.24586,1.38364 12.606856,20.575175 12.531519,23.211966 z"
                 inkscape:label="Hexagon foreground" /><path
                 sodipodi:type="star"
                 style="fill:#00618f;fill-opacity:1;stroke:none;stroke-width:3.2239;stroke-linecap:round;stroke-linejoin:round;stroke-miterlimit:4;stroke-dasharray:none;stroke-opacity:1;paint-order:stroke fill markers"
                 id="path5437"
                 inkscape:flatsided="true"
                 sodipodi:sides="6"
                 sodipodi:cx="-101.32812"
                 sodipodi:cy="49.345661"
                 sodipodi:r1="26.378672"
                 sodipodi:r2="13.189336"
                 sodipodi:arg1="0.028563658"
                 sodipodi:arg2="0.55216243"
                 inkscape:rounded="0.1"
                 inkscape:randomized="0"
                 transform="matrix(-7.6833756e-4,-0.03800288,0.03800288,-7.6833756e-4,13.665928,5.3070986)"
                 inkscape:transform-center-x="0.047249474"
                 inkscape:transform-center-y="-0.58744091"
                 d="m -74.960206,50.09903 c -0.07534,2.636791 -11.515196,21.205445 -13.836392,22.458597 -2.321197,1.253152 -24.122052,0.63027 -26.367912,-0.753369 -2.24586,-1.383639 -12.60686,-20.575175 -12.53152,-23.211966 0.0753,-2.636791 11.5152,-21.205445 13.83639,-22.458596 2.3212,-1.253152 24.122055,-0.630271 26.367915,0.753368 2.24586,1.38364 12.606856,20.575175 12.531519,23.211966 z"
                 inkscape:label="Hexagon foreground" /></g><g
               id="g2466"><path
                 sodipodi:type="star"
                 style="fill:#b3f1ff;fill-opacity:1;stroke:none;stroke-width:3.2239;stroke-linecap:round;stroke-linejoin:round;stroke-miterlimit:4;stroke-dasharray:none;stroke-opacity:1;paint-order:stroke fill markers"
                 id="path3115"
                 inkscape:flatsided="true"
                 sodipodi:sides="6"
                 sodipodi:cx="-101.32812"
                 sodipodi:cy="49.345661"
                 sodipodi:r1="26.378672"
                 sodipodi:r2="13.189336"
                 sodipodi:arg1="0.028563658"
                 sodipodi:arg2="0.55216243"
                 inkscape:rounded="0.1"
                 inkscape:randomized="0"
                 transform="matrix(-0.00230501,-0.11400864,0.11400864,-0.00230501,0.79629328,-2.2825815)"
                 inkscape:transform-center-x="0.14174787"
                 inkscape:transform-center-y="-1.7623223"
                 d="m -74.960206,50.09903 c -0.07534,2.636791 -11.515196,21.205445 -13.836392,22.458597 -2.321197,1.253152 -24.122052,0.63027 -26.367912,-0.753369 -2.24586,-1.383639 -12.60686,-20.575175 -12.53152,-23.211966 0.0753,-2.636791 11.5152,-21.205445 13.83639,-22.458596 2.3212,-1.253152 24.122055,-0.630271 26.367915,0.753368 2.24586,1.38364 12.606856,20.575175 12.531519,23.211966 z"
                 inkscape:label="Hexagon foreground" /><path
                 sodipodi:type="star"
                 style="fill:#4b8ec0;fill-opacity:1;stroke:none;stroke-width:3.2239;stroke-linecap:round;stroke-linejoin:round;stroke-miterlimit:4;stroke-dasharray:none;stroke-opacity:1;paint-order:stroke fill markers"
                 id="path7219"
                 inkscape:flatsided="true"
                 sodipodi:sides="6"
                 sodipodi:cx="-101.32812"
                 sodipodi:cy="49.345661"
                 sodipodi:r1="26.378672"
                 sodipodi:r2="13.189336"
                 sodipodi:arg1="0.028563658"
                 sodipodi:arg2="0.55216243"
                 inkscape:rounded="0.1"
                 inkscape:randomized="0"
                 transform="matrix(-0.00153668,-0.07600576,0.07600576,-0.00153668,2.7494248,1.5302644)"
                 inkscape:transform-center-x="0.094499169"
                 inkscape:transform-center-y="-1.1748818"
                 d="m -74.960206,50.09903 c -0.07534,2.636791 -11.515196,21.205445 -13.836392,22.458597 -2.321197,1.253152 -24.122052,0.63027 -26.367912,-0.753369 -2.24586,-1.383639 -12.60686,-20.575175 -12.53152,-23.211966 0.0753,-2.636791 11.5152,-21.205445 13.83639,-22.458596 2.3212,-1.253152 24.122055,-0.630271 26.367915,0.753368 2.24586,1.38364 12.606856,20.575175 12.531519,23.211966 z"
                 inkscape:label="Hexagon foreground" /><path
                 sodipodi:type="star"
                 style="fill:#00618f;fill-opacity:1;stroke:none;stroke-width:3.2239;stroke-linecap:round;stroke-linejoin:round;stroke-miterlimit:4;stroke-dasharray:none;stroke-opacity:1;paint-order:stroke fill markers"
                 id="path7225"
                 inkscape:flatsided="true"
                 sodipodi:sides="6"
                 sodipodi:cx="-101.32812"
                 sodipodi:cy="49.345661"
                 sodipodi:r1="26.378672"
                 sodipodi:r2="13.189336"
                 sodipodi:arg1="0.028563658"
                 sodipodi:arg2="0.55216243"
                 inkscape:rounded="0.1"
                 inkscape:randomized="0"
                 transform="matrix(-7.6833756e-4,-0.03800288,0.03800288,-7.6833756e-4,4.7025564,5.3431114)"
                 inkscape:transform-center-x="0.047249474"
                 inkscape:transform-center-y="-0.58744091"
                 d="m -74.960206,50.09903 c -0.07534,2.636791 -11.515196,21.205445 -13.836392,22.458597 -2.321197,1.253152 -24.122052,0.63027 -26.367912,-0.753369 -2.24586,-1.383639 -12.60686,-20.575175 -12.53152,-23.211966 0.0753,-2.636791 11.5152,-21.205445 13.83639,-22.458596 2.3212,-1.253152 24.122055,-0.630271 26.367915,0.753368 2.24586,1.38364 12.606856,20.575175 12.531519,23.211966 z"
                 inkscape:label="Hexagon foreground" /></g></g><g
             id="g2496"><g
               id="g2471"><path
                 sodipodi:type="star"
                 style="fill:#b3f1ff;fill-opacity:1;stroke:none;stroke-width:3.2239;stroke-linecap:round;stroke-linejoin:round;stroke-miterlimit:4;stroke-dasharray:none;stroke-opacity:1;paint-order:stroke fill markers"
                 id="path3856"
                 inkscape:flatsided="true"
                 sodipodi:sides="6"
                 sodipodi:cx="-101.32812"
                 sodipodi:cy="49.345661"
                 sodipodi:r1="26.378672"
                 sodipodi:r2="13.189336"
                 sodipodi:arg1="0.028563658"
                 sodipodi:arg2="0.55216243"
                 inkscape:rounded="0.1"
                 inkscape:randomized="0"
                 transform="matrix(-0.00230501,-0.11400864,0.11400864,-0.00230501,5.2943516,2.6843455)"
                 inkscape:transform-center-x="0.14174787"
                 inkscape:transform-center-y="-1.7623223"
                 d="m -74.960206,50.09903 c -0.07534,2.636791 -11.515196,21.205445 -13.836392,22.458597 -2.321197,1.253152 -24.122052,0.63027 -26.367912,-0.753369 -2.24586,-1.383639 -12.60686,-20.575175 -12.53152,-23.211966 0.0753,-2.636791 11.5152,-21.205445 13.83639,-22.458596 2.3212,-1.253152 24.122055,-0.630271 26.367915,0.753368 2.24586,1.38364 12.606856,20.575175 12.531519,23.211966 z"
                 inkscape:label="Hexagon foreground" /><path
                 sodipodi:type="star"
                 style="fill:#4b8ec0;fill-opacity:1;stroke:none;stroke-width:3.2239;stroke-linecap:round;stroke-linejoin:round;stroke-miterlimit:4;stroke-dasharray:none;stroke-opacity:1;paint-order:stroke fill markers"
                 id="path7217"
                 inkscape:flatsided="true"
                 sodipodi:sides="6"
                 sodipodi:cx="-101.32812"
                 sodipodi:cy="49.345661"
                 sodipodi:r1="26.378672"
                 sodipodi:r2="13.189336"
                 sodipodi:arg1="0.028563658"
                 sodipodi:arg2="0.55216243"
                 inkscape:rounded="0.1"
                 inkscape:randomized="0"
                 transform="matrix(-0.00153668,-0.07600576,0.07600576,-0.00153668,7.2474827,6.4971914)"
                 inkscape:transform-center-x="0.094499169"
                 inkscape:transform-center-y="-1.1748818"
                 d="m -74.960206,50.09903 c -0.07534,2.636791 -11.515196,21.205445 -13.836392,22.458597 -2.321197,1.253152 -24.122052,0.63027 -26.367912,-0.753369 -2.24586,-1.383639 -12.60686,-20.575175 -12.53152,-23.211966 0.0753,-2.636791 11.5152,-21.205445 13.83639,-22.458596 2.3212,-1.253152 24.122055,-0.630271 26.367915,0.753368 2.24586,1.38364 12.606856,20.575175 12.531519,23.211966 z"
                 inkscape:label="Hexagon foreground" /><path
                 sodipodi:type="star"
                 style="fill:#00618f;fill-opacity:1;stroke:none;stroke-width:3.2239;stroke-linecap:round;stroke-linejoin:round;stroke-miterlimit:4;stroke-dasharray:none;stroke-opacity:1;paint-order:stroke fill markers"
                 id="path7223"
                 inkscape:flatsided="true"
                 sodipodi:sides="6"
                 sodipodi:cx="-101.32812"
                 sodipodi:cy="49.345661"
                 sodipodi:r1="26.378672"
                 sodipodi:r2="13.189336"
                 sodipodi:arg1="0.028563658"
                 sodipodi:arg2="0.55216243"
                 inkscape:rounded="0.1"
                 inkscape:randomized="0"
                 transform="matrix(-7.6833756e-4,-0.03800288,0.03800288,-7.6833756e-4,9.2006145,10.310038)"
                 inkscape:transform-center-x="0.047249474"
                 inkscape:transform-center-y="-0.58744091"
                 d="m -74.960206,50.09903 c -0.07534,2.636791 -11.515196,21.205445 -13.836392,22.458597 -2.321197,1.253152 -24.122052,0.63027 -26.367912,-0.753369 -2.24586,-1.383639 -12.60686,-20.575175 -12.53152,-23.211966 0.0753,-2.636791 11.5152,-21.205445 13.83639,-22.458596 2.3212,-1.253152 24.122055,-0.630271 26.367915,0.753368 2.24586,1.38364 12.606856,20.575175 12.531519,23.211966 z"
                 inkscape:label="Hexagon foreground" /></g><g
               id="g2461"><path
                 sodipodi:type="star"
                 style="fill:#b3f1ff;fill-opacity:1;stroke:none;stroke-width:3.2239;stroke-linecap:round;stroke-linejoin:round;stroke-miterlimit:4;stroke-dasharray:none;stroke-opacity:1;paint-order:stroke fill markers"
                 id="path937"
                 inkscape:flatsided="true"
                 sodipodi:sides="6"
                 sodipodi:cx="-101.32812"
                 sodipodi:cy="49.345661"
                 sodipodi:r1="26.378672"
                 sodipodi:r2="13.189336"
                 sodipodi:arg1="0.028563658"
                 sodipodi:arg2="0.55216243"
                 inkscape:rounded="0.1"
                 inkscape:randomized="0"
                 transform="matrix(-0.00230501,-0.11400864,0.11400864,-0.00230501,5.2943515,-7.2495085)"
                 inkscape:transform-center-x="0.14174787"
                 inkscape:transform-center-y="-1.7623223"
                 d="m -74.960206,50.09903 c -0.07534,2.636791 -11.515196,21.205445 -13.836392,22.458597 -2.321197,1.253152 -24.122052,0.63027 -26.367912,-0.753369 -2.24586,-1.383639 -12.60686,-20.575175 -12.53152,-23.211966 0.0753,-2.636791 11.5152,-21.205445 13.83639,-22.458596 2.3212,-1.253152 24.122055,-0.630271 26.367915,0.753368 2.24586,1.38364 12.606856,20.575175 12.531519,23.211966 z"
                 inkscape:label="Hexagon foreground" /><path
                 sodipodi:type="star"
                 style="fill:#4b8ec0;fill-opacity:1;stroke:none;stroke-width:3.2239;stroke-linecap:round;stroke-linejoin:round;stroke-miterlimit:4;stroke-dasharray:none;stroke-opacity:1;paint-order:stroke fill markers"
                 id="path7221"
                 inkscape:flatsided="true"
                 sodipodi:sides="6"
                 sodipodi:cx="-101.32812"
                 sodipodi:cy="49.345661"
                 sodipodi:r1="26.378672"
                 sodipodi:r2="13.189336"
                 sodipodi:arg1="0.028563658"
                 sodipodi:arg2="0.55216243"
                 inkscape:rounded="0.1"
                 inkscape:randomized="0"
                 transform="matrix(-0.00153668,-0.07600576,0.07600576,-0.00153668,7.2474827,-3.4366622)"
                 inkscape:transform-center-x="0.094499169"
                 inkscape:transform-center-y="-1.1748818"
                 d="m -74.960206,50.09903 c -0.07534,2.636791 -11.515196,21.205445 -13.836392,22.458597 -2.321197,1.253152 -24.122052,0.63027 -26.367912,-0.753369 -2.24586,-1.383639 -12.60686,-20.575175 -12.53152,-23.211966 0.0753,-2.636791 11.5152,-21.205445 13.83639,-22.458596 2.3212,-1.253152 24.122055,-0.630271 26.367915,0.753368 2.24586,1.38364 12.606856,20.575175 12.531519,23.211966 z"
                 inkscape:label="Hexagon foreground" /><path
                 sodipodi:type="star"
                 style="fill:#00618f;fill-opacity:1;stroke:none;stroke-width:3.2239;stroke-linecap:round;stroke-linejoin:round;stroke-miterlimit:4;stroke-dasharray:none;stroke-opacity:1;paint-order:stroke fill markers"
                 id="path7227"
                 inkscape:flatsided="true"
                 sodipodi:sides="6"
                 sodipodi:cx="-101.32812"
                 sodipodi:cy="49.345661"
                 sodipodi:r1="26.378672"
                 sodipodi:r2="13.189336"
                 sodipodi:arg1="0.028563658"
                 sodipodi:arg2="0.55216243"
                 inkscape:rounded="0.1"
                 inkscape:randomized="0"
                 transform="matrix(-7.6833756e-4,-0.03800288,0.03800288,-7.6833756e-4,9.2006145,0.37618445)"
                 inkscape:transform-center-x="0.047249474"
                 inkscape:transform-center-y="-0.58744091"
                 d="m -74.960206,50.09903 c -0.07534,2.636791 -11.515196,21.205445 -13.836392,22.458597 -2.321197,1.253152 -24.122052,0.63027 -26.367912,-0.753369 -2.24586,-1.383639 -12.60686,-20.575175 -12.53152,-23.211966 0.0753,-2.636791 11.5152,-21.205445 13.83639,-22.458596 2.3212,-1.253152 24.122055,-0.630271 26.367915,0.753368 2.24586,1.38364 12.606856,20.575175 12.531519,23.211966 z"
                 inkscape:label="Hexagon foreground" /></g></g></g></g><g
         style="display:none;fill:#ffffff;fill-opacity:1"
         id="g3489"
         transform="matrix(0.00275608,0.00275608,-0.00275608,0.00275608,11.819889,16.808611)"><path
           d="m 200,-40 v -40 q 0,-139 58,-225.5 Q 316,-392 418,-480 316,-568 258,-654.5 200,-741 200,-880 v -40 h 80 v 40 q 0,11 0.5,20.5 0.5,9.5 1.5,19.5 h 396 q 1,-10 1.5,-19.5 0.5,-9.5 0.5,-20.5 v -40 h 80 v 40 q 0,139 -58,225.5 -58,86.5 -160,174.5 102,88 160,174.5 58,86.5 58,225.5 v 40 h -80 v -40 q 0,-11 -0.5,-20.5 Q 679,-110 678,-120 H 282 q -1,10 -1.5,19.5 Q 280,-91 280,-80 v 40 z m 138,-640 h 284 q 13,-19 22.5,-38 9.5,-19 17.5,-42 H 298 q 8,22 17.5,41.5 9.5,19.5 22.5,38.5 z m 142,148 q 20,-17 39,-34 19,-17 36,-34 H 405 q 17,17 36,34 19,17 39,34 z m -75,172 h 150 q -17,-17 -36,-34 -19,-17 -39,-34 -20,17 -39,34 -19,17 -36,34 z m -107,160 h 364 q -8,-22 -17.5,-41.5 Q 635,-261 622,-280 H 338 q -13,19 -22.5,38 -9.5,19 -17.5,42 z"
           id="path3480"
           style="fill:#ffffff;fill-opacity:1" /></g></g></g></svg>
